<?xml version="1.0" standalone="no"?>
<!DOCTYPE svg PUBLIC "-//W3C//DTD SVG 1.0//EN" "http://www.w3.org/TR/2001/REC-SVG-20010904/DTD/svg10.dtd">
<svg xmlns="http://www.w3.org/2000/svg" xmlns:xlink="http://www.w3.org/1999/xlink" id="body_1" width="48" height="36">

<g transform="matrix(0.073469386 0 0 0.073469386 5.999999 -0)">
	<g>
        <path d="M329.679 307.94C 330.39697 307.94 331.129 307.824 331.86697 307.591L331.86697 307.591L426.39197 276.686C 430.06696 275.486 432.07996 271.51102 430.88196 267.82602C 429.94196 264.93103 427.25797 262.98502 424.20395 262.98502C 423.46396 262.98502 422.72794 263.10202 422.01794 263.334L422.01794 263.334L327.5 294.237C 325.713 294.818 324.262 296.059 323.413 297.732C 322.563 299.405 322.418 301.31 323.00198 303.091C 323.938 305.992 326.62 307.94 329.679 307.94z" stroke="none" fill="#000000" fill-rule="nonzero" />
        <path d="M329.679 332.246C 330.40097 332.246 331.133 332.129 331.865 331.896L331.865 331.896L379.147 316.44598C 382.818 315.23898 384.833 311.26498 383.639 307.58398C 382.691 304.68698 380.00702 302.74197 376.963 302.74197C 376.22202 302.74197 375.48602 302.86 374.776 303.09198L374.776 303.09198L327.502 318.542C 325.71402 319.124 324.26202 320.365 323.41302 322.037C 322.56302 323.71 322.41803 325.615 323.002 327.396C 323.938 330.296 326.62 332.246 329.679 332.246z" stroke="none" fill="#000000" fill-rule="nonzero" />
        <path d="M460.859 277.978L460.859 224.918C 460.859 222.671 459.77402 220.544 457.95502 219.227C 456.13803 217.916 453.759 217.545 451.64 218.24101L451.64 218.24101L433.66202 224.11801C 414.29703 201.92401 387.68402 188.654 358.41202 186.54901C 366.01303 180.296 372.67203 172.99301 378.23502 164.80602C 379.76703 165.09802 381.33002 165.24501 382.888 165.24501C 396.445 165.24501 407.473 154.21301 407.473 140.65201C 407.473 131.927 402.836 123.86001 395.327 119.43501C 395.85098 115.266014 396.11798 111.013016 396.11798 106.78201C 396.11798 49.969013 349.899 3.7500153 293.08997 3.7500153C 236.28796 3.7500153 190.07697 49.970016 190.07697 106.78201C 190.07697 110.957016 190.34196 115.210014 190.86296 119.431015C 183.35196 123.85602 178.71497 131.92401 178.71497 140.65201C 178.71497 154.21301 189.74797 165.24501 203.30997 165.24501C 204.85597 165.24501 206.40997 165.09702 207.94397 164.80602C 213.61298 173.13101 220.38797 180.52602 228.11397 186.82501C 198.68896 188.71701 171.88197 201.86601 152.31998 224.05602L152.31998 224.05602L134.53497 218.24202C 132.41498 217.54402 130.04297 217.91402 128.22298 219.23003C 126.40997 220.55003 125.32698 222.67703 125.32698 224.91803L125.32698 224.91803L125.32698 277.97803C 108.90698 279.20303 96.180984 292.82904 96.180984 309.40903L96.180984 309.40903L96.180984 323.20303C 96.180984 339.79202 108.90598 353.42404 125.32698 354.64404L125.32698 354.64404L125.32698 426.67206C 125.32698 429.71606 127.26998 432.40005 130.16498 433.35205L130.16498 433.35205L290.9 485.905L290.986 485.93C 291.30298 486.03 291.6 486.10098 291.91998 486.15298L291.91998 486.15298L292.10397 486.179C 292.42996 486.21997 292.75198 486.25 293.08997 486.25C 293.42398 486.25 293.73495 486.22 294.06396 486.18L294.06396 486.18L294.27197 486.151C 294.58096 486.098 294.87497 486.028 295.192 485.93L295.192 485.93L456.008 433.35098C 458.91 432.4 460.86 429.715 460.86 426.672L460.86 426.672L460.86 354.643C 477.27798 353.414 490.00098 339.784 490.00098 323.203L490.00098 323.203L490.00098 309.409C 490 292.835 477.277 279.208 460.859 277.978zM139.376 354.643C 155.79701 353.413 168.522 339.78302 168.522 323.203L168.522 323.203L168.522 309.409C 168.522 292.837 155.796 279.21 139.376 277.978L139.376 277.978L139.376 234.603L286.05402 282.568L286.05402 469.53998L139.37602 421.57697L139.37602 354.643zM154.468 309.409L154.468 323.203C 154.468 332.848 146.623 340.694 136.98 340.694L136.98 340.694L127.70999 340.694C 118.06899 340.694 110.22599 332.847 110.22599 323.203L110.22599 323.203L110.22599 309.409C 110.22599 299.775 118.06999 291.938 127.70999 291.938L127.70999 291.938L136.98 291.938C 146.623 291.938 154.468 299.775 154.468 309.409zM285.278 18.135C 285.631 21.365 285.80902 24.628 285.80902 27.848999C 285.80902 73.723 250.25003 112.466995 204.67902 116.479996C 204.30902 113.142 204.12102 109.883995 204.12102 106.782C 204.122 60.869 239.691 22.117 285.278 18.135zM256.852 222.473L251.661 201.214C 259.412 204.603 267.576 207.017 275.98898 208.408L275.98898 208.408L256.852 222.473zM310.182 208.41C 318.587 207.02 326.75702 204.60701 334.52402 201.22101L334.52402 201.22101L329.31702 222.47401L310.182 208.41zM235.366 200.629L237.052 200.629L245.705 236.038C 246.267 238.321 247.921 240.165 250.135 240.97C 252.38399 241.77701 254.81299 241.403 256.69 240.031L256.69 240.031L293.092 213.276L329.488 240.031C 331.35202 241.399 333.842 241.77 336.04102 240.96901C 338.255 240.16301 339.907 238.32 340.462 236.03801L340.462 236.03801L349.207 200.29701L350.304 200.29701C 376.38898 200.29701 400.70898 210.449 418.97098 228.923L418.97098 228.923L293.09 270.085L167.056 228.87C 185.275 210.645 209.47 200.629 235.366 200.629zM382.888 151.198C 381.259 151.198 379.718 150.849 378.309 150.162C 377.34 149.69 376.305 149.451 375.23398 149.451C 372.75797 149.451 370.511 150.71701 369.222 152.838C 352.94897 179.715 324.48898 195.761 293.08997 195.761C 261.71896 195.761 233.25296 179.714 216.94696 152.836C 215.66396 150.717 213.41795 149.451 210.93697 149.451C 209.85597 149.451 208.81996 149.69301 207.85997 150.167C 206.47697 150.84201 204.90398 151.19801 203.30997 151.19801C 197.49597 151.19801 192.76497 146.46701 192.76497 140.65201C 192.76497 136.35501 195.43398 132.427 199.41696 130.841C 240.96297 129.809 278.25494 103.303 293.09396 64.555C 307.92395 103.311005 345.21896 129.81 386.78296 130.841C 390.75595 132.435 393.41397 136.35701 393.41397 140.65201C 393.413 146.466 388.691 151.198 382.888 151.198zM381.509 116.481C 335.933 112.477005 300.37 73.731 300.37 27.848999C 300.37 24.699999 300.546 21.436998 300.89398 18.135998C 346.49698 22.121998 382.07697 60.872997 382.07697 106.782C 382.077 109.862 381.886 113.12 381.509 116.481zM475.953 309.409L475.953 323.203C 475.953 332.848 468.107 340.694 458.463 340.694L458.463 340.694L449.191 340.694C 439.55902 340.694 431.72202 332.847 431.72202 323.203L431.72202 323.203L431.72202 309.409C 431.72202 299.775 439.55902 291.938 449.191 291.938L449.191 291.938L458.463 291.938C 468.107 291.938 475.953 299.775 475.953 309.409zM446.804 277.978C 430.387 279.203 417.66498 292.829 417.66498 309.409L417.66498 309.409L417.66498 323.203C 417.66498 339.79102 430.38696 353.422 446.804 354.644L446.804 354.644L446.804 421.57703L300.11798 469.54004L300.11798 282.569L446.804 234.603L446.804 277.978z" stroke="none" fill="#000000" fill-rule="nonzero" />
        <path d="M293.096 237.04C 296.988 237.04 300.15402 233.877 300.15402 229.989C 300.15402 226.09799 296.98804 222.933 293.096 222.933C 289.198 222.933 286.02902 226.09799 286.02902 229.989C 286.028 233.877 289.198 237.04 293.096 237.04z" stroke="none" fill="#000000" fill-rule="nonzero" />
        <path d="M300.153 255.043C 300.153 251.152 296.98703 247.986 293.095 247.986C 289.197 247.986 286.028 251.152 286.028 255.043C 286.028 258.935 289.19803 262.101 293.095 262.101C 296.987 262.101 300.153 258.935 300.153 255.043z" stroke="none" fill="#000000" fill-rule="nonzero" />
        <path d="M135.845 174.833C 148.52 174.833 157.874 172.101 158.266 171.984C 161.22801 171.10599 163.293 168.336 163.289 165.247C 163.287 162.15799 161.216 159.39 158.252 158.515C 149.791 156.018 142.367 151.087 136.17 143.852C 153.42099 132.445 163.289 116.129005 163.289 98.935005C 163.289 82.38701 154.48 66.996 138.48601 55.593006C 123.211006 44.703007 103.02301 38.70601 81.64001 38.70601C 60.26301 38.70601 40.078007 44.70301 24.802006 55.59301C 8.808 66.996 0 82.388 0 98.935C 0 115.481995 8.808 130.874 24.802 142.278C 40.077 153.169 60.263 159.166 81.64 159.166C 84.267 159.166 86.966 159.064 89.67 158.864C 104.963 172.052 123.197 174.833 135.84 174.834L135.84 174.834L135.845 174.834L135.845 174.833zM122.57 135.582C 120.81 136.514 119.522 138.146 119.034 140.062C 118.545 141.987 118.895 144.038 119.993996 145.69C 123.85899 151.51001 128.356 156.562 133.38899 160.743C 122.65999 160.37599 108.399994 157.454 96.97199 146.524C 95.65199 145.267 93.925995 144.575 92.11099 144.575C 91.87899 144.575 91.63999 144.59 91.40099 144.614C 88.107994 144.94699 84.82399 145.115 81.63999 145.115C 44.37099 145.115 14.049995 124.39801 14.049995 98.934006C 14.049995 73.47101 44.369995 52.754005 81.63999 52.754005C 118.91199 52.754005 149.236 73.47101 149.236 98.934006C 149.235 113.116 139.268 126.815 122.57 135.582z" stroke="none" fill="#000000" fill-rule="nonzero" />
        <path d="M319.855 37.601C 319.06 34.812 316.48602 32.865 313.59302 32.865C 312.989 32.865 312.385 32.95 311.80103 33.117C 310.12402 33.593002 308.73502 34.693 307.88702 36.218002C 307.04004 37.741 306.83902 39.502003 307.32004 41.174004C 315.17105 68.785 334.33704 92.12601 359.90503 105.212006C 360.83804 105.686005 361.83502 105.926 362.86804 105.926C 365.33804 105.926 367.56705 104.566 368.68805 102.374C 370.32205 99.172 369.04904 95.235 365.85104 93.599C 343.509 82.17 326.743 61.76 319.855 37.601z" stroke="none" fill="#000000" fill-rule="nonzero" />
        <path d="M223.31 105.925C 224.346 105.925 225.344 105.685005 226.278 105.209C 251.839 92.118 271.005 68.777 278.862 41.176003C 279.342 39.504 279.141 37.744003 278.295 36.222004C 277.445 34.695004 276.053 33.592003 274.376 33.117004C 273.79102 32.949005 273.187 32.864006 272.582 32.864006C 269.689 32.864006 267.112 34.812004 266.316 37.601006C 259.44 61.743004 242.67801 82.15401 220.33002 93.59901C 217.13002 95.23501 215.85802 99.172005 217.49702 102.37701C 218.618 104.566 220.846 105.925 223.31 105.925z" stroke="none" fill="#000000" fill-rule="nonzero" />
        <path d="M339.739 125.42C 336.139 125.42 333.21002 128.346 333.21002 131.941C 333.21002 134.211 331.35403 136.058 329.071 136.058C 326.79102 136.058 324.936 134.211 324.936 131.941C 324.936 128.345 322.00702 125.42 318.40802 125.42C 314.807 125.42 311.87802 128.346 311.87802 131.941C 311.87802 141.40599 319.59103 149.10599 329.071 149.10599C 338.548 149.10599 346.25702 141.40599 346.25702 131.94098C 346.257 128.346 343.333 125.42 339.739 125.42z" stroke="none" fill="#000000" fill-rule="nonzero" />
        <path d="M267.729 125.42C 264.13202 125.42 261.206 128.346 261.206 131.941C 261.206 134.211 259.358 136.058 257.087 136.058C 254.815 136.058 252.96501 134.211 252.96501 131.941C 252.96501 128.345 250.03902 125.42 246.44301 125.42C 242.848 125.42 239.923 128.346 239.923 131.941C 239.923 141.40599 247.623 149.10599 257.087 149.10599C 266.553 149.10599 274.253 141.40599 274.253 131.94098C 274.253 128.346 271.326 125.42 267.729 125.42z" stroke="none" fill="#000000" fill-rule="nonzero" />
	</g>
	<g>
	</g>
	<g>
	</g>
	<g>
	</g>
	<g>
	</g>
	<g>
	</g>
	<g>
	</g>
	<g>
	</g>
	<g>
	</g>
	<g>
	</g>
	<g>
	</g>
	<g>
	</g>
	<g>
	</g>
	<g>
	</g>
	<g>
	</g>
	<g>
	</g>
</g>
</svg>